<svg height="24" viewBox="0 0 24 24" width="24" xmlns="http://www.w3.org/2000/svg">
    <path d="m14.9978834 5c3.8659933 0 7 3.13400675 7 7 0 3.7854517-3.0047833 6.8690987-6.7593502 6.995941l-.2406498.004059h-5.99576684c-3.86599325 0-7-3.1340068-7-7 0-3.78545172 3.00478338-6.86909868 6.75935025-6.99594098l.24064975-.00405902zm0 1.5h-5.99576684c-3.03756612 0-5.5 2.46243388-5.5 5.5 0 2.9634791 2.34378001 5.3795391 5.27879286 5.4956328l.22120714.0043672h5.99576684c3.0375662 0 5.5-2.4624339 5.5-5.5 0-2.96347915-2.34378-5.37953914-5.2787928-5.4956328zm-6.9978834 2.5c.41421356 0 .75.33578644.75.75l-.00088344 1.498 1.50088344.0007458c.4142136 0 .75.3357864.75.75 0 .4142135-.3357864.75-.75.75l-1.50088344-.0007458.00088344 1.502c0 .4142136-.33578644.75-.75.75s-.75-.3357864-.75-.75l-.00088344-1.502-1.49911656.0007458c-.41421356 0-.75-.3357865-.75-.75 0-.4142136.33578644-.75.75-.75l1.49911656-.0007458.00088344-1.498c0-.41421356.33578644-.75.75-.75zm6.75 3.5c.6903559 0 1.25.5596441 1.25 1.25s-.5596441 1.25-1.25 1.25-1.25-.5596441-1.25-1.25.5596441-1.25 1.25-1.25zm2-3.5c.6903559 0 1.25.55964406 1.25 1.25 0 .6903559-.5596441 1.25-1.25 1.25s-1.25-.5596441-1.25-1.25c0-.69035594.5596441-1.25 1.25-1.25z" fill="#212121"/>
</svg>