<svg fill="none" height="24" viewBox="0 0 24 24" width="24" xmlns="http://www.w3.org/2000/svg">
<g fill="#292d32">
        <path d="m16 22.75h-8c-3.65 0-5.75-2.1-5.75-5.75v-10c0-3.65 2.1-5.75 5.75-5.75h8c3.65 0 5.75 2.1 5.75 5.75v10c0 3.65-2.1 5.75-5.75 5.75zm-8-20c-2.86 0-4.25 1.39-4.25 4.25v10c0 2.86 1.39 4.25 4.25 4.25h8c2.86 0 4.25-1.39 4.25-4.25v-10c0-2.86-1.39-4.25-4.25-4.25z"/>
        <path d="m16.25 11.75h-8.5c-1.38 0-2.5-1.12-2.5-2.5v-2.5c0-1.38 1.12-2.5 2.5-2.5h8.5c1.38 0 2.5 1.12 2.5 2.5v2.5c0 1.38-1.12 2.5-2.5 2.5zm-8.5-6c-.55 0-1 .45-1 1v2.5c0 .55.45 1 1 1h8.5c.55 0 1-.45 1-1v-2.5c0-.55-.45-1-1-1z"/>
        <path d="m7.99945 18.33c-.19 0-.38-.07-.53-.22-.29-.29-.29-.77 0-1.06l2.29999-2.3c.28996-.29.76996-.29 1.05996 0s.29.77 0 1.06l-2.29995 2.3c-.15.15-.34.22-.53.22z"/>
        <path d="m10.3297 18.36c-.19 0-.37999-.07-.52999-.22l-2.29998-2.3c-.29-.29-.29-.77 0-1.06s.76999-.29 1.05999 0l2.29998 2.3c.29.29.29.77 0 1.06-.15.15-.34.22-.53.22z"/>
        <path d="m16.51 16.3301c-.55 0-1.01-.45-1.01-1s.44-1 .99-1h.02c.55 0 1 .45 1 1s-.45 1-1 1z"/>
        <path d="m14.4902 18.49c-.55 0-1-.44-1-.99v-.02c0-.55.45-1 1-1s1 .45 1 1-.45 1.01-1 1.01z"/>
    </g>
</svg>